<?xml version="1.0" standalone="no"?>
<!DOCTYPE svg PUBLIC "-//W3C//DTD SVG 20010904//EN"
 "http://www.w3.org/TR/2001/REC-SVG-20010904/DTD/svg10.dtd">
<svg version="1.0" xmlns="http://www.w3.org/2000/svg"
 width="165.000000pt" height="165.000000pt" viewBox="0 0 165.000000 165.000000"
 preserveAspectRatio="xMidYMid meet">
<metadata>
Created by potrace 1.14, written by Peter Selinger 2001-2017
</metadata>
<g transform="translate(0.000000,165.000000) scale(0.100000,-0.100000)"
fill="#000000" stroke="none">
<path d="M775 1569 c-95 -9 -202 -45 -255 -87 -14 -10 -38 -26 -55 -35 -45
-24 -85 -64 -135 -140 -14 -20 -28 -37 -32 -37 -5 0 -8 -5 -8 -10 0 -6 -10
-24 -21 -40 -13 -17 -20 -37 -16 -49 3 -12 1 -21 -4 -21 -9 0 -21 -40 -23 -75
-1 -11 -4 -25 -8 -30 -4 -6 -7 -63 -7 -127 0 -110 1 -117 21 -124 16 -5 18 -8
7 -15 -8 -5 -9 -9 -4 -9 6 0 11 -15 12 -33 2 -39 34 -114 59 -142 11 -11 25
-32 31 -48 7 -15 19 -27 26 -27 7 0 21 -18 30 -39 10 -22 36 -59 58 -82 22
-24 45 -51 50 -61 6 -10 14 -16 20 -13 5 4 13 -5 18 -19 6 -13 18 -29 28 -35
10 -6 15 -11 10 -11 -13 0 46 -60 60 -60 8 0 12 -4 9 -8 -7 -12 24 -53 35 -46
5 3 8 0 7 -6 -2 -7 6 -17 16 -23 11 -7 29 -20 40 -29 19 -17 55 -23 120 -20
48 2 133 49 140 78 4 13 11 22 17 18 6 -3 13 3 16 15 3 11 9 19 13 16 4 -2 20
12 36 32 30 39 97 117 117 138 27 28 98 112 119 142 13 18 38 53 56 78 18 25
31 51 29 58 -3 7 -6 4 -6 -5 -1 -10 -5 -18 -10 -18 -5 0 -8 8 -6 17 2 10 4 21
4 25 1 4 7 5 15 2 9 -4 19 9 29 38 9 24 21 57 26 73 6 17 9 20 7 7 -2 -12 0
-19 6 -16 5 3 9 18 8 32 -1 15 -1 29 0 32 6 11 7 206 1 215 -3 6 -6 17 -6 25
0 8 -6 14 -13 12 -8 -1 -11 2 -8 7 8 12 -40 145 -54 149 -5 2 -10 11 -10 20 0
21 -44 74 -54 65 -3 -3 -6 2 -6 11 0 21 -56 80 -69 72 -5 -3 -8 2 -7 11 0 10
-8 19 -19 21 -11 2 -28 13 -38 23 -10 11 -32 26 -50 34 -18 8 -39 19 -47 24
-27 17 -154 50 -205 53 -27 2 -81 0 -120 -3z m214 -124 c30 -8 59 -11 64 -8 6
3 7 1 4 -4 -4 -6 8 -17 25 -24 67 -28 184 -135 218 -201 14 -25 25 -35 35 -32
8 4 15 1 15 -6 0 -6 -4 -8 -10 -5 -14 9 -13 3 12 -73 14 -43 21 -93 22 -142 0
-92 -7 -170 -16 -170 -3 0 -12 -16 -18 -35 -11 -32 -39 -86 -73 -139 -7 -10
-24 -33 -39 -50 -16 -17 -28 -36 -28 -43 0 -7 -4 -13 -9 -13 -13 0 -122 -140
-116 -150 3 -4 -3 -6 -13 -3 -25 6 -104 -88 -96 -114 5 -15 4 -15 -5 -3 -10
13 -12 12 -10 -6 0 -3 -12 -16 -27 -29 -31 -26 -70 -37 -105 -28 -29 8 -78 33
-64 33 6 0 5 3 -1 8 -6 4 -23 26 -38 50 -16 25 -31 40 -38 36 -6 -4 -8 -3 -5
3 4 6 -11 24 -33 42 -22 18 -40 36 -40 42 0 5 -32 46 -71 92 -121 139 -175
229 -204 342 -72 280 131 594 414 640 78 13 175 9 250 -10z m411 -254 c0 -3
-5 -13 -11 -21 -9 -13 -10 -13 -6 1 3 9 0 22 -6 28 -9 9 -8 11 6 6 9 -4 17
-10 17 -14z m47 -146 c0 -8 -4 -12 -9 -9 -5 3 -6 10 -3 15 9 13 12 11 12 -6z
m-48 -326 c-22 -13 -31 -11 -17 5 7 8 17 12 22 9 4 -3 2 -9 -5 -14z m-62 -156
c0 -9 -4 -10 -14 -2 -7 6 -13 12 -13 14 0 1 6 2 13 2 8 0 14 -6 14 -14z m-60
-85 c0 -13 -1 -17 -4 -10 -3 6 -10 9 -16 5 -7 -4 -6 1 2 10 17 21 17 21 18 -5z
m-52 -28 c3 -5 1 -10 -4 -10 -6 0 -11 5 -11 10 0 6 2 10 4 10 3 0 8 -4 11 -10z
m-73 -92 c-7 -7 -12 -8 -12 -2 0 14 12 26 19 19 2 -3 -1 -11 -7 -17z m-111
-41 c-10 -9 -11 -8 -5 6 3 10 9 15 12 12 3 -3 0 -11 -7 -18z m39 -23 c0 -8
-19 -13 -24 -6 -3 5 1 9 9 9 8 0 15 -2 15 -3z"/>
<path d="M733 1375 c-156 -35 -286 -159 -335 -318 -17 -57 -20 -86 -16 -163 5
-83 10 -103 42 -169 68 -138 214 -313 293 -351 65 -31 202 -31 236 -1 7 7 29
21 48 32 20 11 62 49 94 85 31 36 67 76 79 90 47 52 97 130 91 140 -3 5 -1 10
5 10 6 0 8 5 5 10 -3 6 -2 10 3 10 18 0 35 107 30 191 -9 149 -68 261 -186
354 -98 78 -258 110 -389 80z m293 -53 c1 -7 0 -8 -3 -2 -2 5 -9 8 -14 4 -5
-3 -9 0 -9 6 0 15 23 7 26 -8z m-68 -73 c120 -40 224 -170 236 -294 2 -28 -2
-79 -10 -115 -12 -54 -26 -82 -78 -150 -36 -47 -86 -107 -112 -135 -26 -27
-47 -53 -46 -58 1 -4 -1 -6 -5 -5 -5 0 -23 -6 -42 -14 -35 -16 -99 -15 -129 1
-9 5 -44 36 -76 69 -33 34 -64 58 -69 55 -6 -3 -7 -1 -3 5 4 6 -16 46 -45 89
-62 91 -81 146 -80 234 0 148 89 267 237 318 76 26 145 26 222 0z m154 -606
c-6 -3 -9 -10 -6 -15 4 -7 2 -8 -5 -4 -9 6 -9 11 0 22 6 8 15 12 18 8 3 -4 0
-9 -7 -11z m63 7 c3 -6 -1 -7 -9 -4 -18 7 -21 14 -7 14 6 0 13 -4 16 -10z
m-45 -54 c0 -3 -4 -8 -10 -11 -5 -3 -10 -1 -10 4 0 6 5 11 10 11 6 0 10 -2 10
-4z"/>
<path d="M773 1177 c-2 -4 -9 -4 -15 -1 -7 5 -9 2 -6 -8 4 -8 0 -15 -8 -15 -7
0 -11 4 -7 9 14 24 -58 -25 -87 -58 -44 -51 -62 -98 -63 -165 -2 -78 25 -138
82 -192 67 -63 139 -84 223 -67 61 13 143 63 133 81 -4 5 -1 8 5 7 18 -4 60
83 66 138 13 103 -44 210 -136 256 -44 22 -66 26 -118 25 -35 -1 -66 -5 -69
-10z m8 -20 c-10 -9 -11 -8 -5 6 3 10 9 15 12 12 3 -3 0 -11 -7 -18z m63 14
c-8 -8 -34 -10 -38 -2 -3 4 6 7 19 7 14 0 22 -2 19 -5z m66 -116 c102 -53 87
-211 -24 -249 -55 -19 -104 -6 -142 39 -41 47 -49 91 -27 147 19 49 35 64 78
76 38 11 77 6 115 -13z m-217 -200 c-7 -21 -12 -19 -10 4 0 11 5 18 9 15 4 -3
5 -11 1 -19z m121 -153 c3 -5 -1 -9 -9 -9 -8 0 -12 4 -9 9 3 4 7 8 9 8 2 0 6
-4 9 -8z m40 0 c3 -5 -1 -9 -9 -9 -8 0 -12 4 -9 9 3 4 7 8 9 8 2 0 6 -4 9 -8z"/>
</g>
</svg>
